<svg width="157" height="40" viewBox="0 0 157 40" fill="none" xmlns="http://www.w3.org/2000/svg">
<g clip-path="url(#clip0_2668_39501)">
<path d="M72.8823 29.3389H66.063C65.5433 29.3389 65.0952 28.8785 65.0952 28.355V10.9766C65.0952 10.4795 65.5589 9.98783 66.0765 9.98783H72.9604C75.9571 9.98783 78.3132 10.8474 80.0163 12.5801C81.7276 14.3214 82.5774 16.6915 82.5774 19.6766C82.5774 22.6616 81.7147 25.0182 79.9899 26.7466C78.3002 28.475 75.9312 29.3389 72.8823 29.3389ZM69.9816 14.6752V24.6519H73.1173C74.5288 24.6519 75.6087 24.1717 76.3576 23.2116C77.1243 22.2337 77.5077 21.0467 77.5077 19.6501C77.5077 18.2713 77.1243 17.093 76.3576 16.1151C75.6087 15.1551 74.5288 14.6752 73.1173 14.6752H69.9816ZM100.317 29.3389C99.2912 29.3389 98.2662 29.3389 97.2412 29.3389C96.7819 29.3389 96.1004 28.8861 95.9624 28.3718L95.1466 25.8038H89.0056L88.1818 28.3367C88.0007 28.8937 87.3931 29.3389 86.889 29.3389C85.8597 29.3389 84.8299 29.3389 83.8007 29.3389C83.3052 29.3389 82.986 28.8618 83.1698 28.3577C85.2833 22.5617 87.3963 16.7661 89.5097 10.9706C89.6909 10.4725 90.3692 9.98783 90.8646 9.98783C91.7311 9.98783 92.5975 9.98783 93.4634 9.98783C93.9567 9.98783 94.5794 10.452 94.7687 10.9841C96.8244 16.771 98.8793 22.5578 100.934 28.3448C101.116 28.8569 100.806 29.3389 100.317 29.3389ZM90.2339 21.5621H93.9702L92.1414 15.8271L90.2339 21.5621ZM118.111 29.3389C116.897 29.3389 115.685 29.3389 114.471 29.3389C113.972 29.3389 113.233 28.8515 112.973 28.3604L110.094 22.9236H108.186C108.186 24.732 108.186 26.5402 108.186 28.3485C108.186 28.8574 107.704 29.3389 107.216 29.3389C106.237 29.3389 105.258 29.3389 104.28 29.3389C103.792 29.3389 103.299 28.8504 103.299 28.3588C103.299 22.5606 103.299 16.7623 103.299 10.9641C103.299 10.4762 103.791 9.98783 104.271 9.98783H111.347C113.665 9.98783 115.425 10.5989 116.627 11.821C117.828 13.0253 118.43 14.5526 118.43 16.403C118.43 17.6602 118.129 18.7992 117.528 19.8203C116.927 20.842 116.052 21.6232 114.902 22.164C116.104 24.2262 117.305 26.2884 118.507 28.3507C118.808 28.8672 118.605 29.3389 118.111 29.3389ZM111.295 14.4656H108.186V18.6555H111.113C112.089 18.7079 112.768 18.3675 113.151 17.6338C113.535 16.9006 113.535 16.1718 113.151 15.4473C112.768 14.7228 112.15 14.3959 111.295 14.4656ZM132.417 9.98783C133.675 9.98783 134.932 9.98783 136.189 9.98783C136.684 9.98783 136.907 10.48 136.645 10.9766L130.397 22.8447C130.397 24.6828 130.397 26.5208 130.397 28.3583C130.397 28.8499 129.912 29.3389 129.419 29.3389C128.455 29.3389 127.49 29.3389 126.526 29.3389C126.012 29.3389 125.537 28.8494 125.537 28.3528V22.8447C123.48 18.8899 121.422 14.9351 119.364 10.9803C119.111 10.493 119.335 9.98783 119.83 9.98783C121.09 9.98783 122.351 9.98783 123.612 9.98783C124.108 9.98783 124.819 10.4762 125.045 10.9722L127.967 17.3982C128.973 15.255 129.978 13.1122 130.983 10.969C131.21 10.4849 131.93 9.98783 132.417 9.98783ZM154.1 26.7731C152.182 28.6932 149.787 29.6533 146.913 29.6533C144.038 29.6533 141.625 28.6932 139.674 26.7731C137.758 24.8524 136.8 22.487 136.8 19.6766C136.8 16.8661 137.767 14.4916 139.701 12.5541C141.634 10.6162 144.03 9.64746 146.888 9.64746C149.761 9.64746 152.165 10.6162 154.1 12.5541C156.033 14.4916 157 16.8661 157 19.6766C157 22.4698 156.033 24.8351 154.1 26.7731ZM146.888 24.8092C148.315 24.8092 149.518 24.3203 150.493 23.3423C151.469 22.365 151.956 21.1343 151.956 19.6501C151.921 18.1492 151.417 16.9185 150.441 15.9578C149.465 14.9805 148.281 14.4916 146.888 14.4916C145.476 14.4916 144.283 14.9891 143.307 15.9843C142.331 16.9617 141.843 18.1838 141.843 19.6501C141.843 21.1343 142.331 22.365 143.307 23.3423C144.283 24.3203 145.476 24.8092 146.888 24.8092Z" fill="black"/>
<path fill-rule="evenodd" clip-rule="evenodd" d="M4.7973 0H34.9603C45.8929 0 54.8383 8.91093 54.8383 19.8027C54.8383 30.694 45.8929 39.6054 34.9603 39.6054H4.7973C2.15856 39.6054 0 37.4546 0 34.8258V4.7797C0 2.15091 2.15856 0 4.7973 0ZM11.9493 10.062H34.8258C40.1499 10.062 44.5058 14.4014 44.5058 19.7053C44.5058 25.0086 40.1487 29.3481 34.8258 29.3481H25.6779C25.4051 29.3481 25.1599 29.4175 24.9427 29.5811L18.782 34.2241C18.3979 34.5136 17.9026 34.5384 17.4705 34.3204C17.0383 34.1025 16.765 33.693 16.7644 33.2103L16.7639 32.1959C16.7639 30.8495 15.4766 29.3411 13.9582 29.34C13.3035 29.3395 12.6488 29.339 11.994 29.339C10.3666 29.339 9.12035 28.0948 9.12035 26.5046V12.9146C9.12035 11.3449 10.3736 10.062 11.9493 10.062Z" fill="#008CCC"/>
</g>
<defs>
<clipPath id="clip0_2668_39501">
<rect width="157" height="39.6054" fill="white"/>
</clipPath>
</defs>
</svg>
