<svg width="153" height="39" viewBox="0 0 153 39" fill="none" xmlns="http://www.w3.org/2000/svg">
<path d="M12.5149 9.47803L12.9665 9.70929C14.7141 10.6038 16.2147 11.9148 17.3357 13.5266C18.2699 13.0828 19.2583 12.7635 20.2756 12.5767L21.4478 12.3604V20.3205C21.4478 22.6897 20.5066 24.9618 18.8314 26.637C17.1561 28.3123 14.884 29.2534 12.5149 29.2534C10.1458 29.2534 7.87364 28.3123 6.19841 26.637C4.52317 24.9618 3.58203 22.6897 3.58203 20.3205V12.3604L4.75323 12.5767C5.77084 12.7634 6.75957 13.0828 7.69413 13.5266C8.81513 11.9148 10.3157 10.6038 12.0633 9.70929L12.5149 9.47803ZM9.41618 14.5291C10.638 15.3854 11.689 16.4626 12.5149 17.7052C13.3409 16.4627 14.3919 15.3855 15.6136 14.5291C14.7905 13.3851 13.7344 12.4285 12.5149 11.7222C11.2954 12.4285 10.2393 13.3852 9.41618 14.5291ZM11.4221 19.7588C10.5464 18.0577 9.1999 16.6444 7.54326 15.6874C6.91829 15.3265 6.25561 15.0352 5.56711 14.8189V20.3205C5.56711 23.586 7.82018 26.3254 10.8564 27.0698C10.639 26.1594 10.5294 25.2267 10.5298 24.2907C10.5298 22.6858 10.8464 21.1553 11.4221 19.7588ZM12.9655 27.2534C14.7264 27.139 16.3778 26.3588 17.5844 25.0712C18.7911 23.7836 19.4626 22.0852 19.4627 20.3205V14.8189C17.4469 15.4521 15.686 16.7124 14.4363 18.416C13.1867 20.1197 12.5135 22.1778 12.5149 24.2907C12.5149 25.3239 12.6727 26.3194 12.9645 27.2534" fill="#7A8895"/>
<path d="M37.2898 18.5236V7.40711H41.514C44.0867 7.40711 45.5794 8.48699 45.5794 10.345C45.5794 11.7425 44.7537 12.5366 43.4832 12.8065C44.9601 12.9971 45.9765 13.7752 45.9765 15.3633C45.9765 17.3007 44.4519 18.5236 41.7205 18.5236H37.2898ZM41.5775 9.28102H39.6718V11.9807H41.5775C42.5939 11.9807 43.1974 11.4567 43.1974 10.6309C43.1974 9.80509 42.6098 9.28102 41.5775 9.28102ZM41.7363 13.8229H39.6718V16.6338H41.7363C42.8797 16.6338 43.5308 16.1097 43.5308 15.2521C43.5308 14.347 42.8639 13.8229 41.7363 13.8229ZM47.3854 18.5236V7.40711H49.6245V18.5236H47.3854ZM55.3298 18.6188C52.7254 18.6188 51.0261 16.9514 51.0261 14.4422C51.0261 11.9331 52.7254 10.2656 55.3298 10.2656C57.9342 10.2656 59.6334 11.9331 59.6334 14.4422C59.6334 16.9673 57.9342 18.6188 55.3298 18.6188ZM55.3298 16.7926C56.5844 16.7926 57.3625 15.8239 57.3625 14.4422C57.3625 13.0606 56.5844 12.0919 55.3298 12.0919C54.0752 12.0919 53.3129 13.0606 53.3129 14.4422C53.3129 15.8239 54.0752 16.7926 55.3298 16.7926ZM60.5816 15.808H62.7096C62.789 16.5226 63.4083 17.0149 64.5041 17.0149C65.441 17.0149 66.0127 16.7132 66.0127 16.1415C66.0127 15.4745 65.4569 15.4268 64.1388 15.2521C62.2332 15.0298 60.7563 14.601 60.7563 12.9177C60.7563 11.2979 62.1696 10.2339 64.2659 10.2497C66.4574 10.2497 67.9661 11.2185 68.0772 12.8859H65.9333C65.8698 12.2348 65.2505 11.8378 64.3453 11.8378C63.4718 11.8378 62.9001 12.1554 62.9001 12.6795C62.9001 13.2988 63.5989 13.3624 64.7741 13.5053C66.648 13.6958 68.2043 14.1246 68.2043 15.9668C68.2043 17.5866 66.6797 18.6188 64.4882 18.6188C62.2173 18.6188 60.6769 17.5548 60.5816 15.808ZM69.0064 15.808H71.1344C71.2138 16.5226 71.8331 17.0149 72.9289 17.0149C73.8659 17.0149 74.4376 16.7132 74.4376 16.1415C74.4376 15.4745 73.8817 15.4268 72.5636 15.2521C70.658 15.0298 69.1811 14.601 69.1811 12.9177C69.1811 11.2979 70.5944 10.2339 72.6907 10.2497C74.8822 10.2497 76.3909 11.2185 76.502 12.8859H74.3582C74.2946 12.2348 73.6753 11.8378 72.7701 11.8378C71.8967 11.8378 71.3249 12.1554 71.3249 12.6795C71.3249 13.2988 72.0237 13.3624 73.1989 13.5053C75.0728 13.6958 76.6291 14.1246 76.6291 15.9668C76.6291 17.5866 75.1045 18.6188 72.913 18.6188C70.6421 18.6188 69.1017 17.5548 69.0064 15.808ZM81.9534 18.6188C79.349 18.6188 77.6498 16.9514 77.6498 14.4422C77.6498 11.9331 79.349 10.2656 81.9534 10.2656C84.5579 10.2656 86.2571 11.9331 86.2571 14.4422C86.2571 16.9673 84.5579 18.6188 81.9534 18.6188ZM81.9534 16.7926C83.208 16.7926 83.9862 15.8239 83.9862 14.4422C83.9862 13.0606 83.208 12.0919 81.9534 12.0919C80.6989 12.0919 79.9366 13.0606 79.9366 14.4422C79.9366 15.8239 80.6989 16.7926 81.9534 16.7926ZM97.415 10.2656C99.0983 10.2656 100.432 11.2185 100.432 13.8388V18.5236H98.1931V13.9658C98.1931 12.743 97.7485 12.1078 96.7798 12.1078C95.811 12.1078 95.1599 12.8224 95.1599 14.0611V18.5236H92.9208V13.9658C92.9208 12.743 92.4761 12.1078 91.4915 12.1078C90.5228 12.1078 89.8876 12.8542 89.8876 14.077V18.5236H87.6484V10.3609H89.6017L89.8082 11.3773C90.3005 10.742 91.0151 10.2815 92.2061 10.2656C93.2066 10.2497 94.1436 10.615 94.6518 11.6472C95.2235 10.7738 96.1763 10.2656 97.415 10.2656ZM102.172 18.5236V7.40711H109.509V9.45571H104.554V12.0601H108.62V14.0135H104.554V18.5236H102.172ZM110.794 18.5236V7.40711H113.034V18.5236H110.794ZM118.739 18.6188C116.134 18.6188 114.435 16.9514 114.435 14.4422C114.435 11.9331 116.134 10.2656 118.739 10.2656C121.343 10.2656 123.042 11.9331 123.042 14.4422C123.042 16.9673 121.343 18.6188 118.739 18.6188ZM118.739 16.7926C119.993 16.7926 120.772 15.8239 120.772 14.4422C120.772 13.0606 119.993 12.0919 118.739 12.0919C117.484 12.0919 116.722 13.0606 116.722 14.4422C116.722 15.8239 117.484 16.7926 118.739 16.7926ZM126.029 18.5236L123.361 10.3609H125.727L127.363 16.1097L128.903 10.3609H130.92L132.413 16.1256L134.08 10.3609H136.367L133.683 18.5236H131.301L129.872 13.6006L128.411 18.5236H126.029ZM141.049 18.6188C138.333 18.6188 136.697 16.9831 136.697 14.4581C136.697 11.9172 138.365 10.2656 140.89 10.2656C143.335 10.2656 144.987 11.7902 145.019 14.1881C145.019 14.4264 145.003 14.6963 144.955 14.9504H139.032V15.0616C139.079 16.2209 139.826 16.9196 140.953 16.9196C141.858 16.9196 142.494 16.5226 142.684 15.7603H144.892C144.638 17.3484 143.224 18.6188 141.049 18.6188ZM139.079 13.4894H142.764C142.605 12.4889 141.922 11.9331 140.906 11.9331C139.937 11.9331 139.206 12.5207 139.079 13.4894ZM150.991 10.3609H151.372V12.3936H150.483C149.149 12.3936 148.64 13.2829 148.64 14.5216V18.5236H146.401V10.3609H148.434L148.64 11.5837C149.085 10.8532 149.72 10.3609 150.991 10.3609Z" fill="#7A8895"/>
<path d="M39.5413 34.1327H36.9473V27.0118H39.5413C41.7589 27.0118 43.234 28.4665 43.234 30.5621C43.234 32.6475 41.7589 34.1327 39.5413 34.1327ZM38.4732 28.2834V32.8611H39.5413C40.9044 32.8611 41.6674 31.9151 41.6674 30.5621C41.6674 29.199 40.9044 28.2834 39.5413 28.2834H38.4732ZM46.7332 34.1937C44.9937 34.1937 43.9459 33.1459 43.9459 31.5285C43.9459 29.9009 45.014 28.8429 46.6315 28.8429C48.1981 28.8429 49.256 29.8195 49.2764 31.3556C49.2764 31.5081 49.2662 31.6811 49.2357 31.8438H45.4413V31.9151C45.4718 32.6577 45.9499 33.1053 46.6722 33.1053C47.252 33.1053 47.6589 32.8509 47.781 32.3626H49.195C49.0322 33.3799 48.1269 34.1937 46.7332 34.1937ZM45.4718 30.908H47.8319C47.7301 30.2671 47.2927 29.911 46.6417 29.911C46.0211 29.911 45.5532 30.2874 45.4718 30.908ZM50.162 34.1327V27.0118H51.5963V34.1327H50.162ZM53.4198 28.3444C52.9519 28.3444 52.5857 27.9986 52.5857 27.5408C52.5857 27.0729 52.9519 26.727 53.4198 26.727C53.8878 26.727 54.254 27.0729 54.254 27.5408C54.254 27.9986 53.8878 28.3444 53.4198 28.3444ZM52.6976 34.1327V28.9039H54.1421V34.1327H52.6976ZM56.6065 34.1327L54.7245 28.9039H56.2606L57.522 32.6678L58.7631 28.9039H60.2686L58.3867 34.1327H56.6065ZM63.1839 34.1937C61.4444 34.1937 60.3966 33.1459 60.3966 31.5285C60.3966 29.9009 61.4647 28.8429 63.0822 28.8429C64.6488 28.8429 65.7067 29.8195 65.7271 31.3556C65.7271 31.5081 65.7169 31.6811 65.6864 31.8438H61.892V31.9151C61.9225 32.6577 62.4006 33.1053 63.1229 33.1053C63.7027 33.1053 64.1096 32.8509 64.2317 32.3626H65.6457C65.4829 33.3799 64.5776 34.1937 63.1839 34.1937ZM61.9225 30.908H64.2825C64.1808 30.2671 63.7434 29.911 63.0923 29.911C62.4718 29.911 62.0039 30.2874 61.9225 30.908ZM69.5525 28.9039H69.7967V30.206H69.227C68.3725 30.206 68.047 30.7757 68.047 31.5692V34.1327H66.6126V28.9039H67.9147L68.047 29.6872C68.3318 29.2193 68.7387 28.9039 69.5525 28.9039ZM72.1241 34.1632L70.1099 28.9039H71.6358L72.9074 32.6271L74.1484 28.9039H75.6845L73.3651 34.8753C73.0396 35.74 72.7751 36.1672 71.9613 36.1672H70.5677V34.9567H71.3611C71.7273 34.9567 71.8494 34.8651 71.9918 34.5091L72.1241 34.1632Z" fill="#7A8895"/>
</svg>
