<svg width="81" height="26" viewBox="0 0 81 26" fill="none" xmlns="http://www.w3.org/2000/svg">
<path fill-rule="evenodd" clip-rule="evenodd" d="M0.0864258 0.670776H25.0961V25.9855H0.0864258V0.670776ZM6.79634 22.0205V4.94072H18.0812V8.90567H11.3713V11.9556H18.0812V15.9206H11.3713V22.0205H6.79634Z" fill="#7A8895"/>
<path fill-rule="evenodd" clip-rule="evenodd" d="M27.8411 0.670776V25.9855H53.1558V0.670776H27.8411ZM48.8858 14.0906C49.2919 6.78197 43.3959 4.94072 40.6509 4.94072C33.819 4.94072 31.9077 10.8373 31.806 13.7856C31.806 19.2755 37.296 22.0205 40.6509 22.0205C43.0909 22.0205 48.5808 19.5805 48.8858 14.0906Z" fill="#7A8895"/>
<path d="M35.771 13.7856C35.771 13.7856 36.076 8.90567 40.6509 8.90567C44.3109 8.90567 45.0225 12.3623 44.9209 14.0906C44.9209 15.6156 43.3959 18.0556 40.6509 18.0556C36.076 18.0556 35.771 13.7856 35.771 13.7856Z" fill="#7A8895"/>
<path fill-rule="evenodd" clip-rule="evenodd" d="M55.5957 0.670776V25.9855H80.6054V0.670776H55.5957ZM60.4757 22.0205V4.94072H63.8306L68.4056 11.3456L72.6755 4.94072H76.0305V22.0205H72.0655V13.4806L68.4056 17.1406L64.7456 13.4806V22.0205H60.4757Z" fill="#7A8895"/>
</svg>
