<svg width="70" height="16" viewBox="0 0 70 16" fill="none" xmlns="http://www.w3.org/2000/svg">
<path d="M4.81091 3.43393C6.21718 3.43393 7.29038 3.91653 8.03053 4.88174C8.78917 5.82839 9.15924 7.03491 9.15924 8.48272C9.15924 9.91198 8.78917 11.1185 8.03053 12.0651C7.27188 13.0118 6.19868 13.4758 4.79241 13.4758C3.33063 13.4758 2.31294 12.7891 1.70232 11.4155H1.66532V15.9289H0L0 3.65667H1.73933L1.70232 5.56853H1.75783C2.1094 4.1764 3.38614 3.43393 4.81091 3.43393ZM4.58887 12.0837C5.58806 12.0837 6.3097 11.731 6.77229 11.0257C7.23487 10.3018 7.45692 9.42937 7.45692 8.37135C7.45692 7.38758 7.21637 6.5523 6.71678 5.88408C6.23568 5.19729 5.51405 4.86318 4.55186 4.86318C2.75702 4.86318 1.73933 6.21819 1.68382 8.2043V8.31567C1.68382 9.37369 1.90586 10.2832 2.34995 11.0071C2.81253 11.731 3.55267 12.0837 4.58887 12.0837Z" fill="white"/>
<path d="M9.4008 8.46416C9.4008 6.99778 9.82638 5.80983 10.659 4.86318C11.4917 3.91653 12.6574 3.43393 14.1192 3.43393C15.581 3.43393 16.7467 3.91653 17.5793 4.86318C18.412 5.80983 18.8376 6.99778 18.8376 8.46416C18.8376 9.91198 18.412 11.1185 17.5793 12.0651C16.7467 13.0118 15.581 13.4758 14.1192 13.4758C12.6574 13.4758 11.4917 13.0118 10.659 12.0651C9.82638 11.1185 9.4008 9.91198 9.4008 8.46416ZM17.1723 8.46416C17.1723 7.33189 16.8762 6.44093 16.2841 5.79127C15.7105 5.14161 14.9889 4.8075 14.1192 4.8075C13.2495 4.8075 12.5279 5.14161 11.9358 5.79127C11.3622 6.44093 11.0661 7.33189 11.0661 8.46416C11.0661 9.57787 11.3622 10.4688 11.9358 11.1185C12.5279 11.7682 13.2495 12.0837 14.1192 12.0837C14.9889 12.0837 15.7105 11.7682 16.2841 11.1185C16.8762 10.4688 17.1723 9.57787 17.1723 8.46416Z" fill="white"/>
<path d="M21.5238 0V1.93042H19.8215V0L21.5238 0ZM19.84 13.2531V3.65667H21.5053V13.2531H19.84Z" fill="white"/>
<path d="M27.5543 3.43393C29.9783 3.43393 31.1995 4.78893 31.1995 6.9421V13.2531H29.5342V7.10915C29.5342 5.42003 28.7386 4.82606 27.3323 4.82606C25.4634 4.82606 24.5013 5.77271 24.5013 8.16717V13.2531H22.8359V3.65667L24.4087 3.65667V5.73558H24.4457C24.8898 4.19496 26.0741 3.43393 27.5543 3.43393Z" fill="white"/>
<path d="M36.6122 3.65667V5.03024H34.7064V11.2484C34.7064 11.6939 34.8359 11.8424 35.4095 11.8424H36.5197V13.2531H34.6509C33.4666 13.2531 33.0781 12.5849 33.0781 11.4155V5.03024H31.5053V3.65667H33.0781V1.37357L34.6509 0.593976H34.7064V3.65667H36.6122Z" fill="white"/>
<path d="M45.371 6.81217V11.9538C45.371 12.4921 45.4266 12.919 45.5191 13.2531H43.8538C43.7982 12.919 43.7797 12.2136 43.7797 11.1185H43.7612C43.4652 12.6591 42.244 13.4758 40.4121 13.4758C37.4886 13.4758 36.9334 11.9352 36.9334 10.7101C36.9334 9.50362 37.5626 8.64978 38.5247 8.27854C39.0243 8.09293 39.4869 7.96299 39.9495 7.87019C40.4121 7.77738 40.8932 7.70313 41.4113 7.64744C41.9479 7.59176 42.2995 7.53607 42.466 7.48039C43.5577 7.16484 43.7057 6.92354 43.7057 6.19963C43.7057 5.30866 42.8916 4.8075 41.4668 4.8075C40.5046 4.8075 39.857 5.08592 39.5794 5.54997C39.3389 5.99545 39.3204 6.12538 39.2649 6.47805H37.5996C37.6736 5.86552 37.7846 5.42003 37.9511 5.10448C38.5247 3.99078 39.6905 3.43393 41.4298 3.43393C42.8176 3.43393 43.8723 3.84228 44.3904 4.30633C44.6679 4.54763 44.8715 4.82606 45.0195 5.17873C45.334 5.84695 45.371 6.27387 45.371 6.81217ZM43.7057 8.79827V7.25765C43.5392 8.09293 42.8176 8.40848 41.0597 8.76115C39.3574 9.0767 38.6543 9.48506 38.6543 10.673C38.6543 11.564 39.3944 12.1765 40.5971 12.1765C42.651 12.1765 43.7057 11.2299 43.7057 8.79827Z" fill="white"/>
<path d="M48.3878 0V1.93042L46.6855 1.93042L46.704 0L48.3878 0ZM46.704 13.2531V3.65667H48.3693V13.2531H46.704Z" fill="white"/>
<g clip-path="url(#clip0_2645_33961)">
<path fill-rule="evenodd" clip-rule="evenodd" d="M69.1261 2.36719L50.4923 2.36719V2.36736H50.4922V7.47664C50.4922 7.47664 50.4922 7.47664 50.4923 7.47664V8.37817C50.4923 8.37817 50.4923 8.37817 50.4923 8.37817V13.4874H55.6015C55.6015 13.4874 55.6015 13.4874 55.6015 13.4874H56.5039C56.5039 13.4877 56.5039 13.4881 56.5039 13.4884L69.1268 13.4884V8.37479H69.1261V7.4729H69.1268V2.36733H69.1261V2.36719ZM69.1261 2.36733L56.5039 2.36733C56.5039 5.18706 58.7897 7.4729 61.6094 7.4729H69.1261V2.36733ZM69.1261 8.37479H61.6175C58.7937 8.37479 56.5045 10.6637 56.5039 13.4874L69.1261 13.4874V8.37479ZM55.6015 13.4874C55.6015 10.6656 53.314 8.37818 50.4923 8.37817V13.4874H55.6015ZM50.4923 7.47664C53.314 7.47659 55.6014 5.1891 55.6014 2.36736L50.4923 2.36736V7.47664Z" fill="white"/>
</g>
<defs>
<clipPath id="clip0_2645_33961">
<rect width="18.1455" height="10.2561" fill="white" transform="translate(50.8867 2.76172)"/>
</clipPath>
</defs>
</svg>
