<svg width="136" height="36" viewBox="0 0 136 36" fill="none" xmlns="http://www.w3.org/2000/svg">
<path d="M45.8662 24.4063V15.9771H42.542V14.0182H51.5945V15.9771H48.2703V24.4063H45.8662ZM55.8755 24.525C54.9654 24.525 54.164 24.347 53.4714 23.9908C52.7888 23.6346 52.2595 23.1498 51.8835 22.5365C51.5076 21.9132 51.3196 21.2058 51.3196 20.4143C51.3196 19.6129 51.5026 18.9055 51.8687 18.2922C52.2446 17.6689 52.7542 17.1841 53.3972 16.8378C54.0403 16.4817 54.7675 16.3036 55.5787 16.3036C56.3603 16.3036 57.0628 16.4717 57.6861 16.8081C58.3193 17.1346 58.8188 17.6095 59.1849 18.2328C59.551 18.8462 59.7341 19.5833 59.7341 20.444C59.7341 20.533 59.7293 20.6369 59.7192 20.7556C59.7091 20.8644 59.6996 20.9683 59.6895 21.0673H53.2043V19.7168H58.4726L57.5822 20.1175C57.5822 19.702 57.4981 19.3408 57.3299 19.0342C57.1617 18.7275 56.9292 18.49 56.6324 18.3218C56.3356 18.1438 55.9893 18.0547 55.5936 18.0547C55.1978 18.0547 54.8466 18.1438 54.5399 18.3218C54.2431 18.49 54.0106 18.7324 53.8424 19.049C53.6743 19.3557 53.5902 19.7217 53.5902 20.1472V20.5033C53.5902 20.9386 53.6841 21.3245 53.8721 21.6609C54.07 21.9874 54.3421 22.2397 54.6883 22.4177C55.0445 22.5859 55.46 22.67 55.9349 22.67C56.3603 22.67 56.7314 22.6057 57.0479 22.4771C57.3744 22.3485 57.6712 22.1555 57.9383 21.8983L59.1701 23.2339C58.804 23.6495 58.3439 23.971 57.7899 24.1986C57.2359 24.4162 56.5978 24.525 55.8755 24.525ZM65.2374 24.525C64.3274 24.525 63.526 24.347 62.8333 23.9908C62.1506 23.6346 61.6217 23.1498 61.2454 22.5365C60.8696 21.9132 60.6815 21.2058 60.6815 20.4143C60.6815 19.6129 60.8649 18.9055 61.2305 18.2922C61.6069 17.6689 62.1162 17.1841 62.7591 16.8378C63.4025 16.4817 64.1297 16.3036 64.9406 16.3036C65.7224 16.3036 66.4246 16.4717 67.0479 16.8081C67.6813 17.1346 68.1811 17.6095 68.5468 18.2328C68.913 18.8462 69.0958 19.5833 69.0958 20.444C69.0958 20.533 69.0911 20.6369 69.081 20.7556C69.0715 20.8644 69.0614 20.9683 69.0513 21.0673H62.5662V19.7168H67.8344L66.944 20.1175C66.944 19.702 66.8603 19.3408 66.6917 19.0342C66.5237 18.7275 66.291 18.49 65.9942 18.3218C65.6974 18.1438 65.3514 18.0547 64.9554 18.0547C64.5601 18.0547 64.2087 18.1438 63.9018 18.3218C63.605 18.49 63.3729 18.7324 63.2043 19.049C63.0363 19.3557 62.952 19.7217 62.952 20.1472V20.5033C62.952 20.9386 63.0464 21.3245 63.234 21.6609C63.4322 21.9874 63.7041 22.2397 64.0502 22.4177C64.4063 22.5859 64.8219 22.67 65.2968 22.67C65.7224 22.67 66.0934 22.6057 66.4098 22.4771C66.7363 22.3485 67.0331 22.1555 67.3002 21.8983L68.5319 23.2339C68.1663 23.6495 67.7062 23.971 67.1518 24.1986C66.5979 24.4162 65.9598 24.525 65.2374 24.525ZM75.4902 16.3036C76.1236 16.3036 76.6875 16.4322 77.182 16.6894C77.6865 16.9367 78.0825 17.3226 78.3692 17.847C78.6559 18.3614 78.7995 19.0243 78.7995 19.8355V24.4063H76.4845V20.1917C76.4845 19.5486 76.3408 19.0737 76.0541 18.767C75.7769 18.4603 75.3816 18.307 74.8669 18.307C74.5006 18.307 74.1694 18.3861 73.8726 18.5444C73.5859 18.6928 73.3579 18.9253 73.19 19.2419C73.0315 19.5585 72.9525 19.9641 72.9525 20.4588V24.4063H70.6374V16.4223H72.8486V18.6335L72.4331 17.9657C72.7198 17.4314 73.1306 17.0208 73.6648 16.7339C74.1991 16.447 74.8075 16.3036 75.4902 16.3036ZM83.213 24.4063V15.9771H79.8888V14.0182H88.9413V15.9771H85.6171V24.4063H83.213ZM93.2224 24.525C92.3124 24.525 91.5111 24.347 90.8183 23.9908C90.1357 23.6346 89.6062 23.1498 89.2304 22.5365C88.8547 21.9132 88.6665 21.2058 88.6665 20.4143C88.6665 19.6129 88.8493 18.9055 89.2156 18.2922C89.5913 17.6689 90.1012 17.1841 90.7441 16.8378C91.387 16.4817 92.1142 16.3036 92.9256 16.3036C93.7074 16.3036 94.4096 16.4717 95.0329 16.8081C95.6663 17.1346 96.1655 17.6095 96.5318 18.2328C96.898 18.8462 97.0809 19.5833 97.0809 20.444C97.0809 20.533 97.0761 20.6369 97.066 20.7556C97.0559 20.8644 97.0464 20.9683 97.0364 21.0673H90.5512V19.7168H95.8195L94.9291 20.1175C94.9291 19.702 94.8448 19.3408 94.6768 19.0342C94.5088 18.7275 94.2761 18.49 93.9793 18.3218C93.6825 18.1438 93.3364 18.0547 92.9405 18.0547C92.5445 18.0547 92.1937 18.1438 91.8868 18.3218C91.59 18.49 91.3573 18.7324 91.1893 19.049C91.0213 19.3557 90.937 19.7217 90.937 20.1472V20.5033C90.937 20.9386 91.0308 21.3245 91.219 21.6609C91.4167 21.9874 91.6891 22.2397 92.0352 22.4177C92.3914 22.5859 92.8069 22.67 93.2818 22.67C93.7074 22.67 94.0784 22.6057 94.3948 22.4771C94.7213 22.3485 95.0181 22.1555 95.2852 21.8983L96.5169 23.2339C96.1507 23.6495 95.6906 23.971 95.1368 24.1986C94.583 24.4162 93.9449 24.525 93.2224 24.525ZM102.48 24.525C101.62 24.525 100.853 24.3519 100.18 24.0056C99.5075 23.6495 98.978 23.1597 98.5922 22.5365C98.2164 21.9132 98.0283 21.2058 98.0283 20.4143C98.0283 19.6129 98.2164 18.9055 98.5922 18.2922C98.978 17.6689 99.5075 17.1841 100.18 16.8378C100.853 16.4817 101.62 16.3036 102.48 16.3036C103.321 16.3036 104.053 16.4817 104.677 16.8378C105.3 17.1841 105.76 17.6837 106.057 18.3367L104.261 19.3013C104.053 18.9253 103.792 18.6483 103.475 18.4702C103.168 18.2922 102.832 18.2031 102.465 18.2031C102.07 18.2031 101.714 18.2922 101.397 18.4702C101.081 18.6483 100.828 18.9006 100.64 19.2271C100.462 19.5536 100.373 19.9493 100.373 20.4143C100.373 20.8793 100.462 21.275 100.64 21.6015C100.828 21.928 101.081 22.1803 101.397 22.3584C101.714 22.5365 102.07 22.6255 102.465 22.6255C102.832 22.6255 103.168 22.5414 103.475 22.3732C103.792 22.1951 104.053 21.9132 104.261 21.5273L106.057 22.5068C105.76 23.1498 105.3 23.6495 104.677 24.0056C104.053 24.3519 103.321 24.525 102.48 24.525ZM112.199 16.3036C112.832 16.3036 113.396 16.4322 113.891 16.6894C114.396 16.9367 114.791 17.3226 115.078 17.847C115.365 18.3614 115.509 19.0243 115.509 19.8355V24.4063H113.194V20.1917C113.194 19.5486 113.05 19.0737 112.763 18.767C112.486 18.4603 112.09 18.307 111.576 18.307C111.21 18.307 110.879 18.3861 110.582 18.5444C110.295 18.6928 110.067 18.9253 109.899 19.2419C109.741 19.5585 109.662 19.9641 109.662 20.4588V24.4063H107.347V13.3949H109.662V18.6335L109.142 17.9657C109.429 17.4314 109.84 17.0208 110.374 16.7339C110.908 16.447 111.517 16.3036 112.199 16.3036ZM119.982 18.2031H124.983V20.073H119.982V18.2031ZM120.16 22.4771H125.814V24.4063H117.77V14.0182H125.621V15.9474H120.16V22.4771ZM130.948 24.525C130.196 24.525 129.519 24.3568 128.915 24.0205C128.311 23.6742 127.832 23.1944 127.475 22.581C127.129 21.9675 126.956 21.2454 126.956 20.4143C126.956 19.5733 127.129 18.8462 127.475 18.2328C127.832 17.6194 128.311 17.1445 128.915 16.8081C129.519 16.4717 130.196 16.3036 130.948 16.3036C131.621 16.3036 132.209 16.452 132.714 16.7488C133.219 17.0456 133.609 17.4957 133.886 18.0992C134.164 18.7027 134.302 19.4744 134.302 20.4143C134.302 21.3443 134.168 22.1159 133.901 22.7294C133.634 23.3328 133.248 23.783 132.744 24.0798C132.249 24.3766 131.65 24.525 130.948 24.525ZM131.349 22.6255C131.724 22.6255 132.066 22.5365 132.373 22.3584C132.68 22.1803 132.922 21.928 133.1 21.6015C133.288 21.2651 133.382 20.8694 133.382 20.4143C133.382 19.9493 133.288 19.5536 133.1 19.2271C132.922 18.9006 132.68 18.6483 132.373 18.4702C132.066 18.2922 131.724 18.2031 131.349 18.2031C130.963 18.2031 130.617 18.2922 130.31 18.4702C130.003 18.6483 129.756 18.9006 129.568 19.2271C129.39 19.5536 129.301 19.9493 129.301 20.4143C129.301 20.8694 129.39 21.2651 129.568 21.6015C129.756 21.928 130.003 22.1803 130.31 22.3584C130.617 22.5365 130.963 22.6255 131.349 22.6255ZM133.441 24.4063V22.7739L133.486 20.3995L133.337 18.0399V13.3949H135.652V24.4063H133.441Z" fill="#7A8895"/>
<path d="M20.0912 25.1809V22.8715C20.0912 22.7738 20.0412 22.6882 19.9538 22.6394L17.9178 21.4908C17.8304 21.4419 17.7305 21.4419 17.643 21.4908L15.6071 22.6394C15.5196 22.6882 15.4697 22.7738 15.4697 22.8715V25.1809C15.4697 25.2786 15.5196 25.3641 15.6071 25.413L17.643 26.5616C17.7305 26.6105 17.8304 26.6105 17.9178 26.5616L19.9538 25.413C20.0412 25.3641 20.0912 25.2786 20.0912 25.1809Z" fill="#7A8895"/>
<path d="M24.2381 22.6148L22.6393 21.7106C22.5769 21.6739 22.4895 21.6739 22.427 21.7106L20.8282 22.6148C20.7657 22.6515 20.7158 22.7248 20.7158 22.7981V24.6065C20.7158 24.6798 20.7533 24.7531 20.8282 24.7898L22.427 25.694C22.4895 25.7306 22.5769 25.7306 22.6393 25.694L24.2381 24.7898C24.3006 24.7531 24.3505 24.6798 24.3505 24.6065V22.7981C24.3505 22.7248 24.313 22.6515 24.2381 22.6148Z" fill="#7A8895"/>
<path d="M15.7432 14.1106V16.1389C15.7432 16.2245 15.7931 16.2978 15.8681 16.3466L17.6542 17.3608C17.7291 17.4097 17.829 17.4097 17.904 17.3608L19.6901 16.3466C19.765 16.2978 19.815 16.2245 19.815 16.1389V14.1106C19.815 14.025 19.765 13.9517 19.6901 13.9029L17.904 12.8887C17.829 12.8398 17.7291 12.8398 17.6542 12.8887L15.8681 13.9029C15.7806 13.9517 15.7432 14.025 15.7432 14.1106Z" fill="#7A8895"/>
<path d="M19.4924 8.35548L17.8811 7.4513C17.8187 7.41467 17.7312 7.41467 17.6563 7.4513L16.045 8.35548C15.9826 8.39217 15.9326 8.46548 15.9326 8.53879V10.3594C15.9326 10.4327 15.9701 10.506 16.045 10.5427L17.6563 11.4469C17.7187 11.4836 17.8062 11.4836 17.8811 11.4469L19.4924 10.5427C19.5548 10.506 19.6048 10.4327 19.6048 10.3594V8.53879C19.6048 8.46548 19.5673 8.39217 19.4924 8.35548Z" fill="#7A8895"/>
<path d="M21.4515 10.7505L20.6522 10.2984C20.6147 10.2739 20.5772 10.2739 20.5398 10.2984L19.7404 10.7505C19.7029 10.7749 19.6904 10.7993 19.6904 10.836V11.728C19.6904 11.7646 19.7154 11.8013 19.7404 11.8135L20.5398 12.2656C20.5772 12.29 20.6147 12.29 20.6522 12.2656L21.4515 11.8135C21.4891 11.7891 21.5015 11.7646 21.5015 11.728V10.836C21.5015 10.7993 21.4765 10.7627 21.4515 10.7505Z" fill="#A5A5A5"/>
<path d="M18.9679 11.4959C18.943 11.4836 18.9055 11.4836 18.8805 11.4959L18.2435 11.8502C18.2185 11.8624 18.2061 11.8991 18.2061 11.9236V12.6444C18.2061 12.6689 18.2185 12.7055 18.2435 12.7177L18.8805 13.0721C18.9055 13.0844 18.943 13.0844 18.9679 13.0721L19.6049 12.7177C19.6299 12.7055 19.6425 12.6689 19.6425 12.6444V11.9236C19.6425 11.8991 19.6299 11.8624 19.6049 11.8502L18.9679 11.4959Z" fill="#A5A5A5"/>
<path d="M20.1397 13.5606C20.1522 13.5728 20.1772 13.5728 20.1897 13.5606L20.5769 13.3407C20.5893 13.3285 20.6019 13.3163 20.6019 13.2918V12.8641C20.6019 12.852 20.5893 12.8275 20.5769 12.8153L20.1897 12.5954C20.1772 12.5831 20.1522 12.5831 20.1397 12.5954L19.7525 12.8153C19.74 12.8275 19.7275 12.8397 19.7275 12.8641V13.2918C19.7275 13.3041 19.74 13.3285 19.7525 13.3407L20.1397 13.5606Z" fill="#A5A5A5"/>
<path d="M21.1768 12.4V12.8276C21.1768 12.8398 21.1892 12.8643 21.2018 12.8765L21.5764 13.0964C21.589 13.1086 21.6139 13.1086 21.6264 13.0964L22.0136 12.8765C22.0261 12.8643 22.0386 12.8521 22.0386 12.8276V12.4C22.0386 12.3877 22.0261 12.3633 22.0136 12.3511L21.6264 12.1311C21.6139 12.1189 21.589 12.1189 21.5764 12.1311L21.2018 12.3511C21.1892 12.3633 21.1768 12.3755 21.1768 12.4Z" fill="#A5A5A5"/>
<path d="M21.9651 9.62611C21.9526 9.61389 21.9277 9.61389 21.9151 9.62611L21.5279 9.84605C21.5155 9.85827 21.5029 9.87044 21.5029 9.8949V10.3226C21.5029 10.3348 21.5155 10.3592 21.5279 10.3714L21.9151 10.5914C21.9277 10.6036 21.9526 10.6036 21.9651 10.5914L22.3398 10.3714C22.3523 10.3592 22.3648 10.347 22.3648 10.3226V9.8949C22.3648 9.88267 22.3523 9.85827 22.3398 9.84605L21.9651 9.62611Z" fill="#A5A5A5"/>
<path d="M21.2022 7.89118C21.2148 7.90341 21.2397 7.90341 21.2522 7.89118L21.6269 7.67125C21.6394 7.65902 21.6519 7.6468 21.6519 7.6224V7.1947C21.6519 7.18248 21.6394 7.15808 21.6269 7.14585L21.2522 6.92592C21.2397 6.91369 21.2148 6.91369 21.2022 6.92592L20.815 7.14585C20.8026 7.15808 20.79 7.17025 20.79 7.1947V7.6224C20.79 7.63457 20.8026 7.65902 20.815 7.67125L21.2022 7.89118Z" fill="#A5A5A5"/>
<path d="M22.3901 10.8117C22.3776 10.7994 22.3526 10.7994 22.3401 10.8117L21.9654 11.0316C21.9529 11.0438 21.9404 11.056 21.9404 11.0805V11.5081C21.9404 11.5204 21.9529 11.5448 21.9654 11.557L22.3401 11.777C22.3526 11.7892 22.3776 11.7892 22.3901 11.777L22.7648 11.557C22.7773 11.5448 22.7898 11.5326 22.7898 11.5081V11.0805C22.7898 11.0683 22.7773 11.0438 22.7648 11.0316L22.3901 10.8117Z" fill="#A5A5A5"/>
<path d="M19.6536 6.54713L19.0541 6.88924C19.0291 6.90147 19.0166 6.92593 19.0166 6.96256V7.64681C19.0166 7.67126 19.0291 7.70795 19.0541 7.72012L19.6536 8.06227C19.6786 8.0745 19.7161 8.0745 19.741 8.06227L20.3406 7.72012C20.3655 7.70795 20.378 7.68349 20.378 7.64681V6.96256C20.378 6.93816 20.3655 6.90147 20.3406 6.88924L19.741 6.54713C19.7161 6.53491 19.6786 6.53491 19.6536 6.54713Z" fill="#A5A5A5"/>
<path d="M15.7078 5.66751L17.6439 6.76722C17.7313 6.81608 17.8312 6.81608 17.9062 6.76722L19.8422 5.66751C19.9296 5.61863 19.9796 5.5331 19.9796 5.44756V3.26038C19.9796 3.16263 19.9296 3.0771 19.8422 3.04044L18.7805 2.44172V1.48864C18.7805 1.47642 18.768 1.45198 18.7555 1.43976L17.7688 0.877694C17.7563 0.865476 17.7313 0.865476 17.7188 0.877694L16.7321 1.43976C16.7196 1.45198 16.7071 1.4642 16.7071 1.48864V2.49059L15.7204 3.05266C15.6329 3.10154 15.5829 3.18707 15.5829 3.2726V5.45978C15.5705 5.5331 15.6204 5.61863 15.7078 5.66751Z" fill="#A5A5A5"/>
<path d="M19.3033 29.3597V27.8446C19.3033 27.7835 19.2658 27.7224 19.2159 27.6857L17.8669 26.9281C17.8045 26.8915 17.742 26.8915 17.6795 26.9281L16.3306 27.6857C16.2681 27.7224 16.2432 27.7712 16.2432 27.8446V29.3597C16.2432 29.4208 16.2806 29.4819 16.3306 29.5185L17.6795 30.2761C17.742 30.3128 17.8045 30.3128 17.8669 30.2761L19.2159 29.5185C19.2658 29.4819 19.3033 29.4208 19.3033 29.3597Z" fill="#A5A5A5"/>
<path d="M22.7901 26.6595L21.4411 25.9019C21.3787 25.8652 21.3162 25.8652 21.2538 25.9019L19.9048 26.6595C19.8424 26.6961 19.8174 26.745 19.8174 26.8183V28.3335C19.8174 28.3945 19.8549 28.4556 19.9048 28.4923L21.2538 29.2499C21.3162 29.2865 21.3787 29.2865 21.4411 29.2499L22.7901 28.4923C22.8526 28.4556 22.8775 28.4068 22.8775 28.3335V26.8183C22.8775 26.745 22.8526 26.6839 22.7901 26.6595Z" fill="#A5A5A5"/>
<path d="M17.8295 30.7646C17.7921 30.7402 17.7546 30.7402 17.7171 30.7646L16.8928 31.229C16.8553 31.2534 16.8428 31.29 16.8428 31.3267V32.2554C16.8428 32.292 16.8678 32.3287 16.8928 32.3531L17.7171 32.8175C17.7546 32.8418 17.7921 32.8418 17.8295 32.8175L18.6539 32.3531C18.6914 32.3287 18.7039 32.292 18.7039 32.2554V31.3267C18.7039 31.29 18.6789 31.2534 18.6539 31.229L17.8295 30.7646Z" fill="#7A8895"/>
<path d="M17.0053 32.8786L16.5557 32.6221C16.5307 32.6099 16.5182 32.6099 16.4932 32.6221L16.0435 32.8786C16.0186 32.8909 16.0186 32.9153 16.0186 32.9276V33.4407C16.0186 33.4652 16.0311 33.4774 16.0435 33.4896L16.4932 33.7462C16.5182 33.7584 16.5307 33.7584 16.5557 33.7462L17.0053 33.4896C17.0303 33.4774 17.0303 33.453 17.0303 33.4407V32.9276C17.0303 32.9153 17.0178 32.8909 17.0053 32.8786Z" fill="#A5A5A5"/>
<path d="M13.1354 25.694L14.7342 24.7898C14.7967 24.7531 14.8466 24.6798 14.8466 24.6065V22.7981C14.8466 22.7248 14.8091 22.6515 14.7342 22.6148L13.1354 21.7106C13.073 21.6739 12.9856 21.6739 12.9231 21.7106L11.3243 22.6148C11.2618 22.6515 11.2119 22.7248 11.2119 22.7981V24.6065C11.2119 24.6798 11.2494 24.7531 11.3243 24.7898L12.9231 25.694C12.9856 25.7306 13.0605 25.7306 13.1354 25.694Z" fill="#7A8895"/>
<path d="M12.8961 20.7089L14.9196 21.8575C15.007 21.9064 15.107 21.9064 15.1944 21.8575L17.2179 20.7089C17.3053 20.6601 17.3553 20.5745 17.3553 20.4768V18.1796C17.3553 18.0819 17.3053 17.9963 17.2179 17.9475L15.1944 16.7989C15.107 16.75 15.007 16.75 14.9196 16.7989L12.8961 17.9475C12.8087 17.9963 12.7588 18.0819 12.7588 18.1796V20.4768C12.7588 20.5623 12.8087 20.6601 12.8961 20.7089Z" fill="#A5A5A5"/>
<path d="M20.6417 21.8453L22.6651 20.6967C22.7526 20.6478 22.8025 20.5623 22.8025 20.4645V18.1796C22.8025 18.0819 22.7526 17.9963 22.6651 17.9475L20.6417 16.7989C20.5542 16.75 20.4543 16.75 20.3669 16.7989L18.3434 17.9475C18.256 17.9963 18.2061 18.0819 18.2061 18.1796V20.4768C18.2061 20.5745 18.256 20.6601 18.3434 20.7089L20.3669 21.8575C20.4543 21.8941 20.5542 21.8941 20.6417 21.8453Z" fill="#A5A5A5"/>
<path d="M15.7311 28.3335V26.8183C15.7311 26.7572 15.6936 26.6961 15.6436 26.6595L14.2947 25.9019C14.2322 25.8652 14.1698 25.8652 14.1073 25.9019L12.7583 26.6595C12.6959 26.6961 12.6709 26.745 12.6709 26.8183V28.3335C12.6709 28.3945 12.7084 28.4556 12.7583 28.4923L14.1073 29.2499C14.1698 29.2865 14.2322 29.2865 14.2947 29.2499L15.6436 28.4923C15.6936 28.4556 15.7311 28.3945 15.7311 28.3335Z" fill="#A5A5A5"/>
<path d="M16.5165 31.4861V30.3864C16.5165 30.3375 16.4915 30.3009 16.454 30.2764L15.4798 29.7266C15.4423 29.7021 15.3923 29.7021 15.3424 29.7266L14.3681 30.2764C14.3307 30.3009 14.3057 30.3375 14.3057 30.3864V31.4861C14.3057 31.535 14.3307 31.5716 14.3681 31.596L15.3424 32.1459C15.3799 32.1704 15.4298 32.1704 15.4798 32.1459L16.454 31.596C16.4915 31.5716 16.5165 31.5227 16.5165 31.4861Z" fill="#7A8895"/>
<path d="M19.517 32.8786L19.0674 32.6221C19.0424 32.6099 19.0299 32.6099 19.0049 32.6221L18.5553 32.8786C18.5303 32.8909 18.5303 32.9153 18.5303 32.9276V33.4407C18.5303 33.4652 18.5428 33.4774 18.5553 33.4896L19.0049 33.7462C19.0299 33.7584 19.0424 33.7584 19.0674 33.7462L19.517 33.4896C19.542 33.4774 19.542 33.453 19.542 33.4407V32.9276C19.5545 32.9153 19.542 32.8909 19.517 32.8786Z" fill="#A5A5A5"/>
<path d="M17.8069 33.5388C17.7943 33.5388 17.7819 33.5266 17.7819 33.5266C17.7694 33.5266 17.7569 33.5266 17.7569 33.5388L17.3072 33.7955C17.2822 33.8077 17.2822 33.8321 17.2822 33.8443V34.3575C17.2822 34.3819 17.2948 34.3942 17.3072 34.4064L17.7569 34.663C17.7694 34.663 17.7819 34.6752 17.7819 34.6752C17.7943 34.6752 17.8069 34.6752 17.8069 34.663L18.2565 34.4064C18.2815 34.3942 18.2815 34.3698 18.2815 34.3575V33.8443C18.2815 33.8199 18.269 33.8077 18.2565 33.7955L17.8069 33.5388Z" fill="#A5A5A5"/>
<path d="M17.7933 35.005C17.7808 34.9928 17.7683 34.9928 17.7558 35.005L17.481 35.1639C17.4685 35.176 17.4561 35.1883 17.4561 35.2005V35.506C17.4561 35.5182 17.4685 35.5304 17.481 35.5427L17.7558 35.7015C17.7683 35.7137 17.7808 35.7137 17.7933 35.7015L18.0681 35.5427C18.0806 35.5304 18.0806 35.5182 18.0806 35.506V35.2005C18.0806 35.1883 18.0681 35.176 18.0681 35.1639L17.7933 35.005Z" fill="#A5A5A5"/>
<path d="M21.1787 30.2764L20.2044 29.7266C20.1669 29.7021 20.117 29.7021 20.067 29.7266L19.0928 30.2764C19.0553 30.3009 19.0303 30.3375 19.0303 30.3864V31.4861C19.0303 31.535 19.0553 31.5716 19.0928 31.596L20.067 32.1459C20.1045 32.1704 20.1544 32.1704 20.2044 32.1459L21.1787 31.596C21.2161 31.5716 21.2411 31.535 21.2411 31.4861V30.3864C21.2411 30.3375 21.2161 30.3009 21.1787 30.2764Z" fill="#7A8895"/>
<path d="M15.7933 10.7505L14.994 10.2984C14.9565 10.2739 14.919 10.2739 14.8816 10.2984L14.0821 10.7505C14.0447 10.7749 14.0322 10.7993 14.0322 10.836V11.728C14.0322 11.7646 14.0572 11.8013 14.0821 11.8135L14.8816 12.2656C14.919 12.29 14.9565 12.29 14.994 12.2656L15.7933 11.8135C15.8308 11.7891 15.8433 11.7646 15.8433 11.728V10.836C15.8558 10.7993 15.8308 10.7627 15.7933 10.7505Z" fill="#A5A5A5"/>
<path d="M15.9072 11.9359V12.6568C15.9072 12.6812 15.9197 12.7178 15.9447 12.7301L16.5817 13.0845C16.6067 13.0967 16.6441 13.0967 16.6691 13.0845L17.3061 12.7301C17.3311 12.7178 17.3436 12.6812 17.3436 12.6568V11.9359C17.3436 11.9114 17.3311 11.8747 17.3061 11.8626L16.6691 11.5082C16.6441 11.496 16.6067 11.496 16.5817 11.5082L15.9447 11.8626C15.9322 11.8747 15.9072 11.8992 15.9072 11.9359Z" fill="#A5A5A5"/>
<path d="M15.8191 13.304V12.8763C15.8191 12.8642 15.8066 12.8397 15.7941 12.8275L15.4194 12.6076C15.4069 12.5953 15.3819 12.5953 15.3694 12.6076L14.9947 12.8275C14.9822 12.8397 14.9697 12.8519 14.9697 12.8763V13.304C14.9697 13.3163 14.9822 13.3407 14.9947 13.3529L15.3694 13.5728C15.3819 13.5851 15.4069 13.5851 15.4194 13.5728L15.7941 13.3529C15.8066 13.3407 15.8191 13.3285 15.8191 13.304Z" fill="#A5A5A5"/>
<path d="M13.9073 12.1309L13.5201 12.3508C13.5076 12.363 13.4951 12.3752 13.4951 12.3996V12.8273C13.4951 12.8396 13.5076 12.864 13.5201 12.8762L13.9073 13.0961C13.9198 13.1084 13.9448 13.1084 13.9572 13.0961L14.3445 12.8762C14.3569 12.864 14.3694 12.8518 14.3694 12.8273V12.3996C14.3694 12.3875 14.3569 12.363 14.3445 12.3508L13.9572 12.1309C13.9448 12.1309 13.9198 12.1309 13.9073 12.1309Z" fill="#A5A5A5"/>
<path d="M13.6467 9.62611C13.6342 9.61389 13.6092 9.61389 13.5968 9.62611L13.2096 9.84605C13.197 9.85827 13.1846 9.87044 13.1846 9.8949V10.3226C13.1846 10.3348 13.197 10.3592 13.2096 10.3714L13.5968 10.5914C13.6092 10.6036 13.6342 10.6036 13.6467 10.5914L14.0339 10.3714C14.0464 10.3592 14.0589 10.347 14.0589 10.3226V9.8949C14.0589 9.88267 14.0464 9.85827 14.0339 9.84605L13.6467 9.62611Z" fill="#A5A5A5"/>
<path d="M14.296 7.89118C14.3085 7.90341 14.3334 7.90341 14.3459 7.89118L14.7331 7.67125C14.7456 7.65902 14.7581 7.6468 14.7581 7.6224V7.1947C14.7581 7.18248 14.7456 7.15808 14.7331 7.14585L14.3459 6.92592C14.3334 6.91369 14.3085 6.91369 14.296 6.92592L13.9088 7.14585C13.8963 7.15808 13.8838 7.17025 13.8838 7.1947V7.6224C13.8838 7.63457 13.8963 7.65902 13.9088 7.67125L14.296 7.89118Z" fill="#A5A5A5"/>
<path d="M13.1592 10.8117L12.772 11.0316C12.7595 11.0438 12.7471 11.056 12.7471 11.0805V11.5081C12.7471 11.5204 12.7595 11.5448 12.772 11.557L13.1592 11.777C13.1717 11.7892 13.1967 11.7892 13.2092 11.777L13.5964 11.557C13.6089 11.5448 13.6214 11.5326 13.6214 11.5081V11.0805C13.6214 11.0683 13.6089 11.0438 13.5964 11.0316L13.2092 10.8117C13.1967 10.7994 13.1717 10.7994 13.1592 10.8117Z" fill="#A5A5A5"/>
<path d="M15.2084 7.70782L15.8079 8.04992C15.8329 8.06215 15.8703 8.06215 15.8953 8.04992L16.4949 7.70782C16.5199 7.6956 16.5323 7.67114 16.5323 7.63451V6.95026C16.5323 6.92581 16.5199 6.88912 16.4949 6.87695L15.8953 6.5348C15.8703 6.52258 15.8329 6.52258 15.8079 6.5348L15.2084 6.87695C15.1834 6.88912 15.1709 6.91358 15.1709 6.95026V7.63451C15.1709 7.67114 15.1834 7.6956 15.2084 7.70782Z" fill="#A5A5A5"/>
<path d="M9.87405 13.8173C6.10192 16.5787 3.15418 20.5377 1.80521 24.9731C1.74276 23.2503 2.09249 21.7107 2.7295 20.11C3.15418 19.0592 3.66629 18.0328 4.27831 17.0675C4.87786 16.09 5.56483 15.1736 6.32677 14.2938C7.08867 13.4263 7.91301 12.6076 8.79986 11.85C10.1114 10.7381 11.5977 9.6873 13.1715 8.96636C13.4213 8.85642 13.6836 8.74643 13.9459 8.64866V9.35737C13.9459 9.39405 13.9584 9.41845 13.9959 9.44291L14.7203 9.84615C14.7453 9.85837 14.7828 9.85837 14.8202 9.84615L15.5447 9.44291C15.5697 9.43068 15.5946 9.39405 15.5946 9.35737V8.53873C15.5946 8.50204 15.5822 8.47764 15.5447 8.45319L14.8202 8.04995C14.8078 8.03772 14.7828 8.03772 14.7703 8.03772C14.0084 8.03772 13.184 8.4165 12.5095 8.7098C11.7851 9.02744 11.0856 9.39405 10.4111 9.80946C8.64997 10.8726 7.06368 12.2044 5.65227 13.6706C4.82789 14.5382 4.05349 15.4791 3.37901 16.4688C2.70452 17.4707 2.11748 18.5215 1.61785 19.6335C0.85594 21.3441 0.393794 23.0914 0.343832 24.9731C0.28138 27.1848 0.643602 29.3964 1.35556 31.4858C5.12767 29.2131 8.32521 25.523 9.61174 21.3441L9.46185 21.2708C7.52586 24.0323 5.32752 26.5249 2.62958 28.5655C2.70452 22.9326 5.6023 17.544 9.87405 13.8173Z" fill="#7A8895"/>
<path d="M35.2537 24.9976C35.2037 23.1159 34.7416 21.3809 33.9797 19.658C33.4925 18.5461 32.9055 17.4953 32.2185 16.4933C31.5441 15.4914 30.7697 14.5627 29.9453 13.6952C28.5338 12.2167 26.9476 10.897 25.1864 9.834C24.512 9.43076 23.8125 9.05198 23.088 8.73428C22.401 8.44104 21.5892 8.06226 20.8273 8.06226C20.8148 8.06226 20.7898 8.06226 20.7773 8.07448L20.0529 8.47772C20.0279 8.48989 20.0029 8.52658 20.0029 8.5632V9.3819C20.0029 9.41853 20.0154 9.44299 20.0529 9.46744L20.7773 9.87068C20.8023 9.88285 20.8397 9.88285 20.8773 9.87068L21.6017 9.46744C21.6267 9.45522 21.6516 9.41853 21.6516 9.3819V8.6732C21.9139 8.75874 22.1637 8.86867 22.426 8.9909C23.9999 9.71183 25.4862 10.7626 26.7977 11.8745C27.6845 12.6321 28.5089 13.4508 29.2708 14.3183C30.0327 15.1859 30.7197 16.1145 31.3192 17.092C31.9188 18.0695 32.4433 19.0837 32.8681 20.1345C33.5051 21.7352 33.8548 23.2748 33.7923 24.9976C32.4433 20.5622 29.4956 16.6033 25.7235 13.8418C29.9952 17.5686 32.893 22.9571 32.993 28.6022C30.295 26.5739 28.0967 24.069 26.1607 21.3075L26.0108 21.3809C27.2973 25.5597 30.5074 29.2498 34.267 31.5225C34.9415 29.4087 35.3162 27.197 35.2537 24.9976Z" fill="#7A8895"/>
</svg>
