<svg width="86" height="38" viewBox="0 0 86 38" fill="none" xmlns="http://www.w3.org/2000/svg">
<g clip-path="url(#clip0_2668_39467)">
<path d="M15.872 11.5585C15.7437 11.7723 15.5728 11.9573 15.3697 12.102C15.1616 12.2238 14.9226 12.2824 14.6817 12.2706C14.3649 12.2656 14.0533 12.1892 13.7701 12.047C13.4571 11.8991 13.1097 11.7408 12.7381 11.5688C12.3073 11.3843 11.8663 11.2246 11.4172 11.0907C10.8573 10.9354 10.2781 10.8613 9.69718 10.8705C8.88069 10.8193 8.06961 11.0342 7.3855 11.4828C7.12568 11.6619 6.9145 11.9028 6.77098 12.1839C6.62746 12.4649 6.5561 12.7772 6.56334 13.0927C6.55772 13.3069 6.59602 13.5199 6.67589 13.7187C6.75576 13.9175 6.87551 14.0978 7.02775 14.2486C7.38763 14.5907 7.80589 14.8657 8.2627 15.0604C8.83021 15.3107 9.41269 15.5255 10.0068 15.7037C10.6604 15.9032 11.3312 16.1222 12.0192 16.3607C12.7051 16.5961 13.377 16.8706 14.0316 17.1829C14.6668 17.4842 15.2545 17.8771 15.7757 18.3491C16.2935 18.8262 16.713 19.4 17.0106 20.0381C17.3393 20.7912 17.4978 21.6075 17.475 22.4289C17.4857 23.4861 17.2784 24.5341 16.8661 25.5077C16.4608 26.4428 15.8493 27.2742 15.0773 27.9398C14.2152 28.6634 13.2178 29.2083 12.143 29.5428C10.0735 30.1605 7.88821 30.2854 5.76182 29.9075C5.01204 29.7719 4.27542 29.5716 3.56023 29.3089C2.88696 29.0585 2.23376 28.7572 1.6063 28.4076C1.04043 28.0969 0.510861 27.7242 0.0273438 27.2965L1.4515 25.0055C1.60205 24.7524 1.81079 24.539 2.06038 24.3828C2.34976 24.2246 2.67688 24.1485 3.00639 24.1627C3.36958 24.158 3.7269 24.2545 4.03838 24.4413C4.35143 24.6271 4.69886 24.8266 5.07038 25.0398C5.51084 25.2798 5.97122 25.4812 6.44639 25.6418C7.08275 25.8409 7.74752 25.9339 8.41407 25.9171C8.93258 25.9276 9.44974 25.8604 9.9483 25.7175C10.3254 25.6078 10.6765 25.4229 10.9803 25.174C11.2318 24.9618 11.4327 24.6962 11.5685 24.3966C11.6923 24.1122 11.7567 23.8055 11.7577 23.4953C11.7655 23.2678 11.7272 23.0411 11.645 22.8289C11.5628 22.6166 11.4385 22.4232 11.2796 22.2603C10.9158 21.9128 10.4945 21.6312 10.0343 21.4278C9.46204 21.169 8.87096 20.9539 8.26614 20.7846C7.59878 20.5919 6.9211 20.3764 6.2331 20.1378C5.54163 19.9002 4.86603 19.6187 4.21039 19.2951C3.56372 18.9792 2.9715 18.5623 2.45598 18.0601C1.92423 17.5369 1.50104 16.9138 1.2107 16.2266C0.869743 15.3874 0.706913 14.4866 0.732545 13.5812C0.729117 12.6525 0.917675 11.7332 1.28639 10.8808C1.66777 10.0139 2.23774 9.24294 2.95478 8.62417C3.76341 7.93347 4.69787 7.4055 5.70678 7.06929C6.94397 6.66337 8.24052 6.46802 9.54239 6.49137C11.0613 6.47034 12.5701 6.74127 13.9869 7.28945C15.2146 7.75639 16.3346 8.46796 17.2789 9.38097L15.872 11.5585Z" fill="black"/>
<path d="M27.0727 9.84876C27.5268 9.35363 28.0178 8.89366 28.5415 8.47276C29.056 8.05083 29.6142 7.68525 30.2065 7.38228C30.8152 7.07365 31.4568 6.83477 32.1191 6.6702C32.8468 6.49557 33.5931 6.41009 34.3414 6.41564C35.5175 6.40403 36.6794 6.67414 37.7298 7.2034C38.783 7.74878 39.6937 8.53345 40.3889 9.49444C41.177 10.6078 41.7596 11.8532 42.1089 13.1718C42.5494 14.7949 42.7635 16.4712 42.7453 18.1529C42.7653 19.7683 42.5331 21.3769 42.0573 22.9208C41.633 24.2937 40.959 25.5765 40.069 26.7048C39.2327 27.7552 38.1758 28.609 36.973 29.2056C35.7182 29.8177 34.3372 30.1264 32.9413 30.1069C31.932 30.1531 30.9237 29.994 29.9777 29.6392C29.0316 29.2844 28.1674 28.7414 27.4373 28.0429V37.1796H21.2935V6.84564H25.0775C25.416 6.82186 25.7526 6.91469 26.0311 7.1087C26.3095 7.30271 26.5132 7.5862 26.6083 7.91204L27.0727 9.84876ZM27.4167 23.7188C27.9219 24.3303 28.5675 24.8106 29.2983 25.1189C29.9878 25.3876 30.7221 25.5231 31.4621 25.518C32.1604 25.5273 32.8521 25.3829 33.4883 25.0948C34.1153 24.797 34.6545 24.3419 35.0535 23.7739C35.5327 23.0774 35.8758 22.2965 36.0648 21.4725C36.3159 20.3797 36.4315 19.2602 36.4088 18.1392C36.4267 17.0491 36.3264 15.9603 36.1095 14.8918C35.9597 14.1293 35.6742 13.4 35.2667 12.7384C34.9448 12.226 34.4861 11.8137 33.9423 11.5481C33.4032 11.3001 32.8158 11.1744 32.2223 11.18C31.2755 11.1491 30.3372 11.3673 29.5013 11.813C28.6976 12.2968 27.9917 12.9269 27.4201 13.6706L27.4167 23.7188Z" fill="black"/>
<path d="M57.0144 6.4914C58.6137 6.47119 60.2027 6.75003 61.6997 7.31356C63.0725 7.82815 64.3167 8.63576 65.3457 9.68017C66.3747 10.7246 67.1637 11.9807 67.6577 13.3611C68.7538 16.5478 68.7538 20.0093 67.6577 23.196C67.153 24.5881 66.358 25.8569 65.3254 26.9181C64.2989 27.9534 63.0626 28.7569 61.6997 29.2745C60.2017 29.8385 58.6114 30.1173 57.0109 30.0967C55.3992 30.1178 53.7976 29.839 52.2878 29.2745C50.9209 28.7587 49.6809 27.9551 48.6517 26.9181C47.6183 25.8556 46.8201 24.5874 46.3091 23.196C45.1945 20.0125 45.1945 16.5447 46.3091 13.3611C46.8194 11.9755 47.6179 10.7139 48.6517 9.65963C49.6832 8.62804 50.9228 7.82823 52.2878 7.31356C53.7987 6.74864 55.4015 6.46984 57.0144 6.4914ZM57.0144 25.4974C58.7619 25.4974 60.0588 24.8931 60.905 23.6845C61.7513 22.4759 62.1732 20.6791 62.1709 18.294C62.1709 15.9227 61.749 14.1328 60.905 12.9242C60.0611 11.7156 58.7642 11.1125 57.0144 11.1148C55.2233 11.1148 53.9046 11.7179 53.0584 12.9242C52.2121 14.1305 51.7902 15.9204 51.7925 18.294C51.7925 20.6814 52.2144 22.4782 53.0584 23.6845C53.9023 24.8908 55.221 25.4951 57.0144 25.4974Z" fill="black"/>
<path d="M79.8218 30.1207C78.8844 30.1354 77.9521 29.9804 77.0698 29.6632C76.3076 29.39 75.6176 28.9471 75.052 28.3677C74.4864 27.7884 74.0601 27.088 73.8053 26.3195C73.5115 25.4452 73.3685 24.5275 73.3822 23.6053V11.2488H71.2253C71.0629 11.2561 70.9008 11.2283 70.7501 11.1673C70.5995 11.1063 70.4637 11.0136 70.3521 10.8954C70.2404 10.7773 70.1556 10.6365 70.1032 10.4826C70.0509 10.3287 70.0323 10.1653 70.0488 10.0036V7.59556L73.7158 6.9282L74.9611 0.9942C75.1239 0.32684 75.5757 -0.00683594 76.3165 -0.00683594H79.5157V6.97292H85.4359V11.242H79.5088V23.1994C79.478 23.7411 79.6401 24.2761 79.9663 24.7096C80.125 24.897 80.325 25.0449 80.5507 25.1416C80.7764 25.2383 81.0215 25.2812 81.2666 25.2668C81.5214 25.2719 81.7754 25.2383 82.02 25.1671C82.2044 25.1097 82.383 25.0348 82.5532 24.9435L82.966 24.7233C83.085 24.6575 83.2188 24.6232 83.3547 24.6236C83.5116 24.6162 83.6668 24.6584 83.7985 24.744C83.9392 24.8576 84.056 24.9979 84.1425 25.1568L85.9863 28.0911C85.1287 28.7631 84.1568 29.2746 83.1174 29.6012C82.0523 29.9437 80.9406 30.119 79.8218 30.1207Z" fill="black"/>
</g>
<defs>
<clipPath id="clip0_2668_39467">
<rect width="86" height="37.1658" fill="white"/>
</clipPath>
</defs>
</svg>
